<svg width="344" height="193" viewBox="0 0 344 193" fill="none" xmlns="http://www.w3.org/2000/svg">
<path d="M55.3307 0H0V192.993H55.3307V0Z" fill="white"/>
<path d="M176.712 193H121.382C121.382 126.07 66.9294 71.618 0 71.618V16.2874C47.204 16.2874 91.5792 34.671 124.957 68.0423C158.336 101.421 176.712 145.796 176.712 193Z" fill="white"/>
<path d="M298.094 193H242.763C242.763 126.07 188.311 71.618 121.382 71.618V16.2874C168.586 16.2874 212.961 34.671 246.339 68.0423C279.717 101.421 298.094 145.796 298.094 193Z" fill="white"/>
<path d="M322.992 192.801C334.07 192.801 343.05 183.821 343.05 172.743C343.05 161.666 334.07 152.686 322.992 152.686C311.915 152.686 302.935 161.666 302.935 172.743C302.935 183.821 311.915 192.801 322.992 192.801Z" fill="white"/>
</svg>
